<svg xmlns="http://www.w3.org/2000/svg" viewBox="0 0 159 211.06"><defs><style>.cls-1{fill:#f866a8;}.cls-2{fill:#d34f9d;}.cls-3,.cls-6,.cls-9{fill:none;stroke:#451c06;stroke-linecap:round;stroke-linejoin:round;}.cls-3,.cls-6{stroke-width:4.62px;}.cls-3{stroke-dasharray:68.19 6.93 0 6.93 209.18 0;}.cls-4{fill:#019ea3;}.cls-5{fill:#8381a9;}.cls-6{stroke-dasharray:136.37 6.93 0 6.93 209.18 0;}.cls-7{fill:#e81e00;}.cls-11,.cls-8{font-size:30px;stroke:#431f10;stroke-miterlimit:10;font-family:Phosphate-Solid, Phosphate;}.cls-8{fill:#2e0420;letter-spacing:-0.06em;}.cls-9{stroke-width:4.21px;stroke-dasharray:287.26 6.31 0 16.84 112.12 0;}.cls-10{fill:#451c06;}.cls-11{fill:#350927;}</style></defs><title>Recurso 2</title><g id="Capa_2" data-name="Capa 2"><g id="objects"><path class="cls-1" d="M39.08,165.11a17.24,17.24,0,0,1-13.56,6.72,15.83,15.83,0,0,1-9.59-3.33,16.88,16.88,0,0,1-5.72,1,15.4,15.4,0,0,1-3.8-.5,73.5,73.5,0,0,0,126.4-4.34Z"/><path class="cls-2" d="M135.17,164.69l-12.51.05a73.51,73.51,0,0,1-75.49,34.32,73.52,73.52,0,0,0,88-34.37Z"/><path class="cls-3" d="M38.87,165.11A17.28,17.28,0,0,1,25,172.24a15.85,15.85,0,0,1-9.61-3.33,16.77,16.77,0,0,1-5.7,1,15,15,0,0,1-3.08-.33,73.5,73.5,0,0,0,126-4.92Z"/><path class="cls-4" d="M95,27.58,92.21,10.44a1.09,1.09,0,0,0-2-.34L82.29,24.89a1.09,1.09,0,0,1-2-.14L72.17,3a1.09,1.09,0,0,0-2,0L62,24.75a1.09,1.09,0,0,1-2,.14L52.13,10.1a1.09,1.09,0,0,0-2,.34L47.26,27.58a1.09,1.09,0,0,1-1.83.61L38.87,21.9a1.09,1.09,0,0,0-1.77,1.19l7.45,19.38a1.09,1.09,0,0,0,1,.71H96.73a1.09,1.09,0,0,0,1-.71l7.45-19.38a1.09,1.09,0,0,0-1.77-1.19l-6.56,6.29A1.09,1.09,0,0,1,95,27.58Z"/><path class="cls-5" d="M104.44,21.63,97.75,39a1.08,1.08,0,0,1-1,.7H45.57a1.08,1.08,0,0,1-1-.7L37.86,21.63a1.08,1.08,0,0,0-.76,1.46l7.45,19.38a1.09,1.09,0,0,0,1,.71H96.73a1.09,1.09,0,0,0,1-.71l7.45-19.38A1.08,1.08,0,0,0,104.44,21.63Z"/><path class="cls-6" d="M105.27,22.63a.51.51,0,0,0,0-.13,1.31,1.31,0,0,0-.09-.28l-.06-.11a1.26,1.26,0,0,0-.22-.24l0-.05a1.18,1.18,0,0,0-.39-.19h0a1.06,1.06,0,0,0-1,.27l-6.56,6.29A1.09,1.09,0,0,1,95,27.58L92.21,10.44a1.09,1.09,0,0,0-2-.34L82.29,24.89a1.09,1.09,0,0,1-2-.14L72.17,3a1.09,1.09,0,0,0-2,0L62,24.75a1.09,1.09,0,0,1-2,.14L52.13,10.1a1.09,1.09,0,0,0-2,.34L47.26,27.58a1.09,1.09,0,0,1-1.83.61L38.87,21.9a1.07,1.07,0,0,0-1-.27h0a1.18,1.18,0,0,0-.39.19l0,.05a1,1,0,0,0-.22.24l-.06.11a.92.92,0,0,0-.09.28.59.59,0,0,0,0,.13.94.94,0,0,0,.07.46l7.45,19.38a1.15,1.15,0,0,0,.16.29,1.1,1.1,0,0,0,.86.42H96.73a1.09,1.09,0,0,0,1-.71l7.45-19.38A1.08,1.08,0,0,0,105.27,22.63Z"/><text></text><path class="cls-7" d="M78,30.35a3.44,3.44,0,0,0-6.84-.56,3.44,3.44,0,0,0-6.84.56s-.28,4.34,6.84,7.53C78.27,34.69,78,30.35,78,30.35Z"/><text class="cls-8" transform="translate(7.5 134.29) scale(1.12 1)">B U R G E R</text><path class="cls-1" d="M82.88,53.38a67.09,67.09,0,0,0-75,43.86,6.16,6.16,0,0,0,5.86,8.14l114.83-.27A6.14,6.14,0,0,0,134.39,97,67,67,0,0,0,82.88,53.38Z"/><path class="cls-2" d="M134.27,97a67.1,67.1,0,0,0-77.5-43.06,68.33,68.33,0,0,1,12.35,1,67.07,67.07,0,0,1,51.51,43.57,6.07,6.07,0,0,1-1.77,6.64l9.59,0A6.15,6.15,0,0,0,134.27,97Z"/><path class="cls-9" d="M82.88,53.38a67.09,67.09,0,0,0-75,43.86,6.16,6.16,0,0,0,5.86,8.14l114.83-.27A6.14,6.14,0,0,0,134.39,97,67,67,0,0,0,82.88,53.38Z"/><path class="cls-10" d="M25.89,94.14c-.21,1.21-1.14,2-2.06,1.89a2,2,0,0,1-1.29-2.48,8.83,8.83,0,0,1,1.29-2.48.94.94,0,0,1,1.7.3A8.8,8.8,0,0,1,25.89,94.14Z"/><path class="cls-10" d="M42.77,78.7c-.21,1.21-1.13,2.06-2.06,1.89a2,2,0,0,1-1.28-2.48,8.59,8.59,0,0,1,1.28-2.47.94.94,0,0,1,1.7.3A8.46,8.46,0,0,1,42.77,78.7Z"/><path class="cls-10" d="M50.38,95.08c-.22,1.2-1.14,2-2.06,1.89A2,2,0,0,1,47,94.49,8.83,8.83,0,0,1,48.32,92a.94.94,0,0,1,1.7.3A9.1,9.1,0,0,1,50.38,95.08Z"/><path class="cls-10" d="M55.79,68.07c-.21,1.21-1.14,2.05-2.06,1.89a2,2,0,0,1-1.29-2.48A8.83,8.83,0,0,1,53.73,65a.94.94,0,0,1,1.7.3A8.51,8.51,0,0,1,55.79,68.07Z"/><path class="cls-10" d="M76.68,68.37c-.21,1.21-1.13,2.06-2.06,1.89a2,2,0,0,1-1.28-2.48,8.35,8.35,0,0,1,1.28-2.47,1,1,0,0,1,1.71.3A8.69,8.69,0,0,1,76.68,68.37Z"/><path class="cls-10" d="M98.74,72.37c-.22,1.21-1.14,2.06-2.06,1.89a2,2,0,0,1-1.29-2.48,8.93,8.93,0,0,1,1.29-2.47.94.94,0,0,1,1.7.3A8.74,8.74,0,0,1,98.74,72.37Z"/><path class="cls-10" d="M119.78,96.62c-.21,1.2-1.13,2-2.06,1.89A2,2,0,0,1,116.44,96a8.59,8.59,0,0,1,1.28-2.47,1,1,0,0,1,1.71.3A8.74,8.74,0,0,1,119.78,96.62Z"/><path class="cls-10" d="M110,85.86c-.21,1.21-1.13,2-2.06,1.89a2,2,0,0,1-1.28-2.48A8.5,8.5,0,0,1,108,82.79a1,1,0,0,1,1.71.3A8.74,8.74,0,0,1,110,85.86Z"/><path class="cls-10" d="M64.71,81.23c-.22,1.21-1.14,2-2.06,1.89a2,2,0,0,1-1.29-2.48,8.83,8.83,0,0,1,1.29-2.48.94.94,0,0,1,1.7.3A9.1,9.1,0,0,1,64.71,81.23Z"/><path class="cls-10" d="M85.65,82.9c-.22,1.2-1.14,2-2.06,1.89a2,2,0,0,1-1.29-2.48,8.83,8.83,0,0,1,1.29-2.48.94.94,0,0,1,1.7.3A9.1,9.1,0,0,1,85.65,82.9Z"/><path class="cls-10" d="M73,94.24c-.21,1.21-1.14,2.05-2.06,1.89a2,2,0,0,1-1.29-2.48,8.83,8.83,0,0,1,1.29-2.48.94.94,0,0,1,1.7.3A8.8,8.8,0,0,1,73,94.24Z"/><path class="cls-10" d="M95.93,94.9c-.21,1.21-1.14,2.06-2.06,1.89a2,2,0,0,1-1.29-2.48,8.67,8.67,0,0,1,1.29-2.47.94.94,0,0,1,1.7.3A8.46,8.46,0,0,1,95.93,94.9Z"/><text></text><text></text><text></text><text></text><text class="cls-11" transform="translate(3.71 158.54) scale(1.22 1)">Q U E E N</text></g></g></svg>